<svg width="40" height="52" viewBox="0 0 40 52" fill="none" xmlns="http://www.w3.org/2000/svg">
<path fill-rule="evenodd" clip-rule="evenodd" d="M24.3186 39.5325C33.2883 37.5583 40 29.563 40 20C40 8.9543 31.0457 0 20 0C8.9543 0 0 8.9543 0 20C0 29.5266 6.66079 37.4976 15.5794 39.5098L19.9532 51.2078L24.3186 39.5325Z" fill="#E40010"/>
<path d="M12.0882 23.5134C12.5078 23.0937 12.7176 22.5893 12.7176 22C12.7176 21.4107 12.5078 20.9062 12.0882 20.4866C11.6685 20.067 11.1641 19.8571 10.5748 19.8571C9.98549 19.8571 9.48103 20.067 9.06138 20.4866C8.64174 20.9062 8.43192 21.4107 8.43192 22C8.43192 22.5893 8.64174 23.0937 9.06138 23.5134C9.48103 23.933 9.98549 24.1429 10.5748 24.1429C11.1641 24.1429 11.6685 23.933 12.0882 23.5134ZM13.1998 17.7143H26.8069L25.615 12.933C25.5971 12.8616 25.5346 12.7857 25.4275 12.7054C25.3203 12.6161 25.2266 12.5714 25.1462 12.5714H14.8605C14.7801 12.5714 14.6864 12.6161 14.5792 12.7054C14.4721 12.7857 14.4096 12.8616 14.3917 12.933L13.1998 17.7143ZM30.9453 23.5134C31.365 23.0937 31.5748 22.5893 31.5748 22C31.5748 21.4107 31.365 20.9062 30.9453 20.4866C30.5257 20.067 30.0212 19.8571 29.4319 19.8571C28.8426 19.8571 28.3382 20.067 27.9185 20.4866C27.4989 20.9062 27.2891 21.4107 27.2891 22C27.2891 22.5893 27.4989 23.0937 27.9185 23.5134C28.3382 23.933 28.8426 24.1429 29.4319 24.1429C30.0212 24.1429 30.5257 23.933 30.9453 23.5134ZM33.7176 20.7143V25.8571C33.7176 25.9821 33.6775 26.0848 33.5971 26.1652C33.5167 26.2455 33.4141 26.2857 33.2891 26.2857H32.0034V28C32.0034 28.7143 31.7534 29.3214 31.2534 29.8214C30.7534 30.3214 30.1462 30.5714 29.4319 30.5714C28.7176 30.5714 28.1105 30.3214 27.6105 29.8214C27.1105 29.3214 26.8605 28.7143 26.8605 28V26.2857H13.1462V28C13.1462 28.7143 12.8962 29.3214 12.3962 29.8214C11.8962 30.3214 11.2891 30.5714 10.5748 30.5714C9.86049 30.5714 9.25335 30.3214 8.75335 29.8214C8.25335 29.3214 8.00335 28.7143 8.00335 28V26.2857H6.71763C6.59263 26.2857 6.48996 26.2455 6.4096 26.1652C6.32924 26.0848 6.28906 25.9821 6.28906 25.8571V20.7143C6.28906 19.8839 6.57924 19.1786 7.1596 18.5982C7.74888 18.0089 8.45871 17.7143 9.28906 17.7143H9.66406L11.0703 12.1027C11.2757 11.2634 11.74 10.5625 12.4632 10C13.1864 9.42857 13.9855 9.14286 14.8605 9.14286H25.1462C26.0212 9.14286 26.8203 9.42857 27.5435 10C28.2667 10.5625 28.731 11.2634 28.9364 12.1027L30.3426 17.7143H30.7176C31.548 17.7143 32.2533 18.0089 32.8337 18.5982C33.423 19.1786 33.7176 19.8839 33.7176 20.7143Z" fill="white"/>
</svg>
