<svg width="40" height="52" viewBox="0 0 40 52" fill="none" xmlns="http://www.w3.org/2000/svg">
<path fill-rule="evenodd" clip-rule="evenodd" d="M24.3186 39.5325C33.2883 37.5583 40 29.563 40 20C40 8.9543 31.0457 0 20 0C8.9543 0 0 8.9543 0 20C0 29.5266 6.66079 37.4976 15.5794 39.5098L19.9532 51.2078L24.3186 39.5325Z" fill="#E40010"/>
<path fill-rule="evenodd" clip-rule="evenodd" d="M9 9.6001C8.44772 9.6001 8 10.0478 8 10.6001V30.5536C8 31.1059 8.44772 31.5536 9 31.5536H31C31.5523 31.5536 32 31.1059 32 30.5536V10.6001C32 10.0478 31.5523 9.6001 31 9.6001H9ZM16.5935 10.9148C16.2658 10.9148 16.0002 11.1805 16.0002 11.5082C16.0002 11.8359 16.2658 12.1015 16.5935 12.1015H23.4069C23.7345 12.1015 24.0002 11.8359 24.0002 11.5082C24.0002 11.1805 23.7345 10.9148 23.4069 10.9148H16.5935Z" fill="white"/>
<rect x="11" y="13.5088" width="18" height="18.9262" rx="1" fill="#E40010"/>
<rect x="13" y="16.7998" width="14" height="2.24" rx="1" fill="white"/>
<rect x="13" y="21.2896" width="14" height="2.24" rx="1" fill="white"/>
<rect x="13" y="25.7783" width="14" height="2.24" rx="1" fill="white"/>
</svg>
