<svg width="146" height="63" viewBox="0 0 146 63" fill="none" xmlns="http://www.w3.org/2000/svg">
<path fill-rule="evenodd" clip-rule="evenodd" d="M11.2428 27.0337L11.1521 27.0294L11.0215 27.4299L9.81144 27.4538C9.92597 27.6986 10.3206 27.8489 10.3208 27.8486C10.3337 27.8256 10.3766 27.8721 10.3999 27.8907L7.84334 30.5468C5.56128 32.9868 5.81524 32.5259 5.0692 32.1943L4.95148 32.6474L6.93323 34.2544C7.11684 34.3922 7.23737 34.477 7.43093 34.6215C8.09986 35.1205 8.97448 35.1905 9.54624 35.425L10.9802 35.7207C11.6855 35.867 11.7871 35.8941 12.6479 35.8908C13.5188 35.8875 15.5822 36.0015 16.31 35.8766C16.7165 35.8069 16.4604 35.7872 16.945 35.6469C17.6443 35.4444 17.6194 35.7637 18.4336 35.4059L19.9117 35.0462C20.3024 34.9666 20.3787 35.0381 20.7004 34.862C21.8762 34.2187 21.1336 34.8619 22.0627 34.3864C22.3499 34.2395 22.3925 34.2522 22.7122 34.171C23.423 33.9906 23.9031 33.5391 24.981 33.1968L25.9702 32.7807C26.1337 32.6917 26.1217 32.5809 26.4552 32.4009L27.9151 31.5905C28.5651 31.311 29.4184 30.5899 30.0982 30.2063C30.5188 29.9689 30.4627 29.9015 30.8861 29.5888C31.8114 28.9054 32.5145 28.2009 33.4667 27.5208C34.2818 26.9387 34.6774 26.404 35.3757 25.7542C36.0235 25.1515 36.3236 25.135 37.323 24.1342L40.9466 20.4067C41.298 20.0522 41.4422 19.7551 41.7598 19.382C42.1313 18.9453 42.3174 18.9129 42.5556 18.3777C42.4604 17.9876 42.355 17.633 42.2325 17.2321L42.0183 16.6818C41.875 16.4276 41.9002 16.8987 41.8201 16.2258C41.4126 15.2796 40.8552 15.7516 40.7842 14.5998C40.646 14.5972 40.4725 14.6085 40.3406 14.5726C40.001 14.4803 40.2801 14.6293 39.9828 14.2844C39.4629 13.6814 39.4891 13.7537 38.8068 13.5144L38.8009 13.2538L37.8406 12.8844C37.0261 12.8797 37.3184 12.8748 36.9125 12.5976L36.6326 12.4319C36.1907 12.4708 36.1234 12.7937 35.3231 13.5939L32.8376 16.0813C32.3208 16.6049 31.9255 16.7202 31.4312 17.1612C30.4816 18.0085 30.3339 18.4928 29.4875 18.8931C29.1493 19.0531 28.5681 19.8269 28.1835 20.0755C27.6808 20.4005 27.9862 19.9609 27.4517 20.5329C27.4365 20.5493 27.4164 20.5742 27.4008 20.5901L25.1647 22.1376C25.1478 22.1522 25.1281 22.1776 25.1112 22.1923L24.7953 22.417C23.8737 22.9116 24.2688 22.8012 23.6988 23.1582L22.5316 23.8288C22.3294 23.9655 22.5779 23.8339 22.3257 23.9471L19.9526 25.0333C19.9305 25.0442 19.9036 25.0595 19.8821 25.071C19.861 25.0822 19.8363 25.101 19.8156 25.1126L19.3801 25.3256C18.78 25.6056 19.3612 25.525 18.6998 25.6184C17.5785 25.7764 18.5676 25.9523 16.8762 26.2812C16.0711 26.4378 16.5173 26.2673 15.8631 26.5653L13.8338 27.0224C13.0209 27.0794 12.0789 27.0104 11.2428 27.0337Z" fill="#F18C06"/>
<path fill-rule="evenodd" clip-rule="evenodd" d="M70.8084 31.3502C67.2948 31.3502 69.3652 31.1217 68.2139 31.0259C68.1624 30.4076 67.7602 30.7796 67.9037 29.5289C68.0583 28.1825 68.1325 28.5813 68.237 27.9141C68.5988 25.602 68.4494 27.8146 68.6505 25.9493C68.7093 25.4041 68.828 25.6545 68.9385 25.2643C68.9895 25.0841 68.9705 24.9448 68.9705 24.7559H69.2948V24.1072H69.6191V23.7829C70.3804 23.7659 70.1037 23.4424 71.3574 23.3516L73.5109 23.4586C73.6454 23.9626 73.8625 23.7784 74.0396 24.3432C74.1479 24.6883 74.1144 24.8548 74.0102 25.1378C74.0012 25.1624 73.9862 25.1892 73.9765 25.2139C73.967 25.2385 73.9513 25.2644 73.9415 25.2894C73.701 25.916 73.922 26.2786 73.7927 26.8754C73.6706 27.4385 73.6539 27.0096 73.4977 28.0938L72.9126 29.6709C72.6871 30.1041 72.3619 30.8149 71.9403 30.9686C71.5263 31.1195 71.5922 30.8919 71.0796 31.1891C70.8648 31.3136 71.2779 31.3502 70.8084 31.3502ZM76.8622 12.8643C76.8622 13.396 76.535 12.8116 76.5329 13.8323C76.5312 14.6222 76.3642 14.765 76.1003 15.9943C75.7811 17.4818 75.7555 16.122 75.8892 17.7291C75.6321 17.9012 75.7766 17.8599 75.4568 17.9453C75.5586 19.1698 75.7573 18.4735 75.2264 19.5527C75.0712 19.8684 75.1324 20.413 75.1324 20.8641C74.975 20.6981 75.0233 20.6833 74.7001 20.6479C74.6875 20.0849 74.3692 19.6922 73.9233 19.4788L73.184 19.1369C72.9289 18.9992 73.2056 19.1152 72.9826 19.014L72.4442 18.9038C71.6213 18.812 68.8912 18.6715 68.1846 18.9971C67.5476 19.2907 68.6208 18.7713 68.0489 19.0776C67.7986 19.2116 67.983 19.1611 67.756 19.2171C67.5258 19.2741 67.2627 19.2425 67.0246 19.2425V19.5668C65.8655 19.5668 66.9683 19.8912 65.7274 19.8912V20.2155H65.4031C65.3206 20.9693 65.1495 20.122 65.0788 20.9722H64.6464V21.2966H64.3221C64.3221 21.7353 64.3683 21.6432 64.2083 21.9396C64.0203 22.288 63.8153 22.2576 63.6735 22.2695C63.6735 22.9633 63.6315 23.1169 63.387 23.6047C63.0213 24.3341 62.4279 26.6862 62.3677 27.4499C62.263 28.7743 62.0365 27.6802 61.9479 29.4085C61.8867 30.5992 61.6175 28.837 61.6195 31.5664C61.6198 32.1069 61.6195 32.6475 61.6195 33.188H61.9438V33.8366C62.5131 33.8989 62.0796 33.7548 62.4285 34.2167C62.6191 34.469 62.6562 34.4359 62.8844 34.6257C63.0795 34.788 63.1613 34.9513 63.3004 35.0745C63.5075 35.258 63.4267 35.242 63.9978 35.242C64.0518 35.7364 64.0646 35.6285 64.8604 35.6765C65.6126 35.7218 65.109 35.8719 65.9364 35.8978C66.7767 35.9242 68.3403 36.0755 69.0409 35.7447C69.0631 35.7342 69.0875 35.7158 69.1099 35.7057C69.6994 35.438 69.4731 35.7329 70.1021 35.4006C70.6263 35.1238 71.3561 34.7563 71.7675 34.3634L72.1056 33.9447C72.1056 34.8936 72.0848 34.5397 71.9519 34.764C71.7588 35.0894 71.7813 34.9072 71.7813 35.5663C72.1194 35.5944 72.1652 35.6743 72.5379 35.6743H77.4026C77.8347 35.6743 77.5403 35.7255 77.8007 35.2075C78.1328 34.5468 77.5428 35.7034 77.8763 35.0669C78.1605 34.5244 77.9978 34.8655 78.0556 34.1653C78.1046 33.5718 78.2509 33.7377 78.344 33.3726C78.4289 33.0394 78.3258 32.7176 78.4176 32.3651C78.6205 31.5862 78.639 32.4257 78.7006 31.5672C78.8306 29.7587 78.8324 31.5613 79.074 29.7784C79.1265 29.3903 79.1323 29.1793 79.1323 28.7557H79.4566C79.4566 26.9323 79.4274 27.8361 79.7222 26.9673C79.84 26.6205 79.7241 26.4142 79.8144 26.0866C79.9496 25.5956 80.0723 26.0554 80.1109 25.3019C80.2171 23.2216 80.3941 24.858 80.4307 23.5678C80.4738 22.0503 80.6211 23.9088 80.7589 21.842C80.784 21.465 80.8678 21.3508 80.9596 21.0698C81.0989 20.6427 81.0136 20.5574 81.1069 20.1361C81.2064 19.6871 81.3147 19.8797 81.3895 19.4457C81.5455 18.5411 81.1827 19.1903 81.715 17.7173C81.889 17.2356 81.7771 17.2785 81.8374 16.7586C81.9556 15.7393 82.1593 17.1796 82.1593 14.9183H82.4836C82.4836 12.4393 82.8079 14.0521 82.8079 12.432C82.8079 12.1829 82.7327 12.1077 82.4836 12.1077H76.8622V12.8643Z" fill="#E40010"/>
<path fill-rule="evenodd" clip-rule="evenodd" d="M48.1064 15.9993C48.1064 16.4707 48.2636 16.294 48.1404 16.7826C48.0398 17.1817 47.0649 18.7874 46.7738 19.3151L46.0111 20.4983C45.8398 20.797 45.8201 20.9374 45.4039 20.9722C45.4039 22.0569 44.9327 21.4344 44.8633 22.2694H44.431C44.431 22.8876 44.4306 22.7326 43.9389 23.2907C43.2883 24.0292 43.421 23.3487 43.3499 23.999H43.0256V24.3233H42.7012C42.7012 25.0462 42.5859 24.9252 41.7554 25.7558L39.3514 28.1083C39.0617 28.3125 38.9467 28.3435 38.6738 28.6198C38.3818 28.9153 38.4091 29.0413 37.9447 29.08C37.8841 29.6333 37.9868 29.1936 37.7749 29.4508C37.5611 29.7101 37.0886 30.0161 36.6474 30.0529V30.3772H36.323C36.2695 30.8666 36.1763 30.7101 35.6145 31.0738C34.5675 31.7517 33.336 32.8536 31.8664 33.596C31.8443 33.6071 31.8158 33.6202 31.7935 33.6311C31.7708 33.642 31.7415 33.6535 31.7188 33.6645C31.6959 33.6754 31.6661 33.6861 31.6435 33.6972C31.2286 33.902 30.7553 34.5199 29.5125 34.8094V35.5662H39.5663V35.2419H39.8906V34.9176H40.2149C40.2741 34.376 40.1099 34.7688 40.5936 34.4315C41.1371 34.0523 40.9946 33.9319 41.5387 33.6469C41.9447 33.4343 41.8902 33.6838 41.9445 33.1879H42.2688V32.8636H42.5931V32.5392H42.9174V32.2149H43.2417C43.3242 31.4611 43.4953 32.3084 43.566 31.4582C44.1553 31.3938 43.5616 31.7059 44.3204 30.699C44.5396 30.408 44.7765 30.1478 45.0796 29.9448L44.7196 32.3956C44.5884 32.8481 44.4663 32.5229 44.4261 33.2912C44.4073 33.65 44.3943 33.7982 44.3366 34.0665C44.1906 34.7439 44.1066 34.6904 44.1066 35.5662C45.1382 35.8065 48.0573 35.6742 49.2956 35.6742C49.6683 35.6742 49.7142 35.5943 50.0523 35.5662C50.0523 34.121 50.2599 34.8488 50.3678 34.152C50.4075 33.8961 50.3417 33.5571 50.3883 33.3078C50.4895 32.7663 50.5413 33.1791 50.6685 32.723C50.7444 32.45 50.6646 32.174 50.7137 31.9034C50.8122 31.3609 50.8635 31.7744 50.9933 31.3181C51.0688 31.0527 51.001 30.7605 51.0247 30.4847C51.0679 29.9828 51.1686 30.1109 51.2724 29.8676C51.4458 29.4614 51.3776 28.8473 51.4965 28.362C51.6025 27.9299 51.6122 28.3334 51.6719 27.6727C51.7226 27.1117 51.609 27.4142 51.8263 26.9622C52.0128 26.5743 51.9387 26.8919 52.0356 26.3065C52.0658 26.1231 52.0707 25.8253 52.1029 25.5091C52.1933 24.6213 52.1385 25.4267 52.3627 24.904C52.5071 24.5674 52.3694 24.3801 52.4642 24.0326C52.5891 23.5744 52.641 23.9891 52.7436 23.4471C52.79 23.2019 52.7268 22.8426 52.7543 22.593C52.8484 21.7339 53.0633 22.725 53.0752 21.1842C53.0818 20.318 53.2772 20.6896 53.3847 20.1964C53.4175 20.0457 53.3984 19.9338 53.4036 19.7831C53.439 18.7492 53.7354 19.524 53.7268 18.2685C53.7235 17.7745 53.6769 17.8672 53.8517 17.5286C54.044 17.156 54.0084 17.6537 54.054 16.8659C54.1257 15.6257 54.256 16.7235 54.4006 15.483L54.8046 13.2923C54.9935 12.552 55.1333 13.2655 55.1333 12.4319C55.1333 11.8901 53.348 12.1076 52.3225 12.1076C51.2775 12.1076 50.2324 12.1076 49.1875 12.1076C49.1336 12.7544 48.9468 12.638 48.8186 12.9278C48.6625 13.2807 48.8375 13.7001 48.6971 14.1035C48.5273 14.5911 48.4486 14.2382 48.4316 15.0271C48.4077 16.1271 48.1064 15.6921 48.1064 15.9993Z" fill="#E40010"/>
<path fill-rule="evenodd" clip-rule="evenodd" d="M93.0778 24.972H88.2131C88.3408 24.63 87.9784 24.817 88.5374 24.7559C88.5374 24.1333 88.4486 23.9224 89.1751 23.4476C89.9979 22.9102 90.8864 23.0262 91.9968 23.0262C92.6442 23.0262 92.6424 23.2343 93.0778 23.3505C93.0778 23.5083 93.0694 23.6144 93.0984 23.7712C93.3652 25.2146 93.1032 23.8331 93.0778 24.972ZM87.024 19.2426V19.5669C85.8528 19.5669 86.6494 19.8912 85.6186 19.8912V20.2155C85.0124 20.2155 85.1786 20.2299 84.8786 20.5565C84.5997 20.86 84.4678 20.8362 84.4295 21.2966C83.838 21.3457 84.0254 21.6227 83.6715 22.0519C83.4353 22.3386 83.4664 22.1769 83.311 22.4481C83.2036 22.6356 83.2777 22.565 83.1855 22.7552C83.1748 22.7774 83.1607 22.8054 83.1494 22.8271C83.1381 22.8483 83.1201 22.8736 83.1086 22.8944C82.7968 23.46 83.0339 23.2375 82.6587 24.2824L81.9322 26.7989C81.8903 27.0194 81.9614 26.8017 81.8714 27.0625C81.86 27.0955 81.818 27.1808 81.804 27.2112C81.639 27.5693 81.6886 27.1901 81.6215 27.6775C81.6094 27.7652 81.614 28.0046 81.615 28.1034C81.634 29.783 80.1291 31.9519 82.6704 34.5146C83.3645 35.2146 84.2017 35.4833 85.1578 35.5947C85.9921 35.6918 85.8177 35.8906 86.1592 35.8906H91.0239C91.446 35.8906 91.096 35.6008 92.6504 35.5714C93.9437 35.5469 92.6125 35.242 94.267 35.242V34.9177H94.9157V34.5934C95.2891 34.5622 95.0943 34.5593 95.3059 34.443C96.0781 34.0184 95.9418 34.3382 95.9966 33.8366H96.3209V33.5123H96.6452C96.6645 32.6497 96.9071 33.2895 96.9696 32.5394H97.2939C97.2939 31.8721 97.3253 32.119 97.5058 31.7784L97.9425 29.7287C90.3044 29.7287 92.961 29.5219 91.812 30.8411C91.0733 31.6891 89.9309 31.7831 88.6411 31.679C87.8073 31.6116 87.4699 31.0872 87.2402 31.026V29.1881H87.5645V28.4315H98.375C98.375 27.6348 98.4163 28.1075 98.5915 27.7831C98.6994 27.5834 98.6323 28.0026 98.701 27.4603C98.7166 27.3372 98.6967 27.052 98.6953 26.9139C98.6838 25.7702 99.0278 26.561 99.0311 25.412C99.0348 24.1501 99.0236 22.8837 99.0236 21.6209H98.6993C98.6993 20.7427 98.6952 21.2173 98.4682 20.7709C98.2397 20.3216 98.5904 20.2694 97.9425 20.2155V19.8912C97.8392 19.8912 97.7346 19.9001 97.6331 19.8762C97.3857 19.8183 97.5155 19.8453 97.3338 19.7432L96.9804 19.556C96.3128 19.2415 96.8744 19.3699 96.2129 19.2424C95.4713 19.0997 96.0225 19.1682 95.6054 18.9852C95.0058 18.7219 90.0627 18.9001 88.9604 18.9088C87.8988 18.9171 88.6622 19.1906 87.7892 19.2511C87.5843 19.2653 87.2462 19.2426 87.024 19.2426Z" fill="#E40010"/>
<path fill-rule="evenodd" clip-rule="evenodd" d="M126.59 31.0261C125.351 31.0261 125.78 31.1504 125.536 31.2696C125.244 31.4123 124.704 31.3542 124.316 31.3551C123.439 31.357 123.794 31.3484 123.092 31.0649L122.784 30.9408C122.585 30.8383 122.815 30.8195 122.374 30.7018C122.374 27.5147 122.518 29.1287 122.686 28.2033C122.723 28.0021 122.679 27.7597 122.694 27.5623C122.76 26.6877 122.849 27.53 123.011 26.7983C123.024 26.7397 123.031 26.5615 123.033 26.4954C123.039 26.2577 123.023 25.9745 123.023 25.7289H123.347C123.347 25.3302 123.288 25.2015 123.456 24.8645C123.466 24.8429 123.485 24.8183 123.497 24.7975C124.105 23.6947 123.723 24.1882 124.452 23.6992C124.892 23.4047 124.479 23.4655 125.289 23.4548C125.991 23.4453 126.419 23.2694 127.199 23.39C128.626 23.6106 128.616 24.5816 128.28 25.9053C128.174 26.3209 128.255 26.4114 128.211 26.8089C128.137 27.4634 128.055 27.0139 127.921 27.4917C127.843 27.7675 127.914 28.0649 127.845 28.3893C127.767 28.7578 127.314 30.1202 126.997 30.4601C126.732 30.7445 126.697 30.6258 126.59 31.0261ZM121.834 19.2427V19.567H121.077V19.8913C120.225 19.8913 120.255 20.0637 119.842 20.6024C119.156 21.4968 118.577 21.7169 118.12 22.7723C117.936 23.1978 118.065 23.5328 117.613 24.2113C117.194 24.8418 117.595 24.505 117.196 25.7399C117.072 26.1224 117.125 26.1356 117.048 26.5653C116.998 26.8469 116.866 27.0356 116.801 27.2907C116.717 27.6199 116.78 27.8504 116.727 28.1892C116.548 29.3266 116.32 28.6795 116.32 31.4584C116.32 33.363 117.062 34.5975 118.544 35.1801C119.366 35.5027 118.936 35.4555 119.365 35.5482C119.816 35.6452 119.99 35.4923 120.442 35.6603C120.967 35.8554 120.579 35.8929 121.394 35.8977L128.206 35.5603C128.769 35.3657 128.032 35.4522 129.065 35.2309C129.829 35.0673 129.239 34.9178 130.05 34.9178V34.5935C130.675 34.5935 130.758 34.7379 130.806 34.1611H131.13V33.8367H131.455V33.5124H131.779C131.794 32.8261 132.014 33.0127 132.318 32.538L133.107 30.9485C133.231 30.6061 133.124 30.5545 133.27 30.2466C133.511 29.7371 133.388 30.4663 133.513 29.3007C133.579 28.687 133.768 29.0397 133.83 28.4288C133.869 28.0494 133.756 27.9798 133.914 27.6479C134.02 27.4274 134.087 27.7111 134.159 27.1357C134.19 26.8882 134.129 26.541 134.166 26.2783C134.263 25.607 134.496 26.0589 134.487 24.9773C134.481 24.2958 134.52 23.9608 134.578 23.4392C134.64 22.8806 134.489 22.5828 134.486 21.9407C134.484 21.3557 134.511 21.5522 134.29 21.1643C134.278 21.1437 134.26 21.1186 134.248 21.0975C134.237 21.0761 134.223 21.0484 134.212 21.0263C133.922 20.4361 133.464 19.8033 132.85 19.5767L132.273 19.2895C132.017 19.2018 131.867 19.27 131.592 19.2137C130.635 19.0172 132.178 18.9567 129.397 18.9227C128.772 18.915 128.582 18.8049 127.89 18.8077L123.456 18.9195C122.766 19.0283 123.45 19.0859 122.795 19.2309L121.834 19.2427Z" fill="#E40010"/>
<path fill-rule="evenodd" clip-rule="evenodd" d="M14.1617 13.7293C14.1617 13.5463 14.4788 13.5776 14.2985 13.7293L14.2585 13.7351C14.1493 13.7374 14.1617 13.975 14.1617 13.7293ZM14.486 13.405C14.6008 13.29 14.896 13.5766 14.6064 13.4611C14.6039 13.4601 14.305 13.586 14.486 13.405ZM13.5131 10.7023C13.5131 10.4257 13.6842 10.6849 13.5773 10.7023C13.5761 10.7026 13.5131 11.0041 13.5131 10.7023ZM13.8374 10.378C13.8374 10.1014 14.0085 10.3606 13.9017 10.378C13.9004 10.3782 13.8374 10.6798 13.8374 10.378ZM14.1617 9.94553C14.1617 9.65212 14.5484 9.94553 14.2585 9.95153C14.1493 9.9537 14.1617 10.1913 14.1617 9.94553ZM15.9995 8.1078C15.9587 8.59644 15.6607 8.72004 15.378 8.99979C15.1015 9.27367 14.9011 9.5238 14.5941 9.72937C14.6543 9.00528 15.5073 8.43735 15.9995 8.1078ZM13.1485 7.45918L12.9725 7.60601C12.9725 7.92394 13.0085 7.70037 12.8379 7.78349C12.144 8.79563 11.7717 8.77162 11.0065 10.0311C10.5697 10.7499 10.7829 10.0193 10.4471 10.8974C10.2379 11.4444 10.1018 11.2858 9.87328 11.6003C9.6589 11.8954 9.83152 11.74 9.67831 12.0513L9.41362 12.5472C9.24291 12.9893 9.53837 12.6299 9.18635 12.9689C8.40047 13.7257 8.9675 13.336 8.63808 13.8281C8.42805 14.1419 8.50938 13.5788 7.8854 15.1278C7.70319 15.58 7.79014 15.9546 7.62441 16.2738C7.21953 17.0535 7.34569 16.1688 6.94809 17.6421C6.82538 18.0965 6.80776 17.9134 6.74545 18.1956C6.65544 18.6024 6.79333 18.97 6.66642 19.4204C6.32755 20.6221 6.39177 22.0769 6.37913 23.3488C6.37556 23.9957 6.5916 24.1074 6.9606 24.8237C7.19566 25.2798 6.92242 25.0556 7.34824 25.5147C7.54066 25.7222 7.6594 25.8744 7.91272 26.0285C8.13157 26.1615 8.34888 26.2201 8.54692 26.3683C9.57744 27.1384 8.77764 26.9972 11.1521 27.0295L11.2428 27.0339C11.4475 26.6306 11.6723 26.33 11.8451 25.8986C12.2651 24.8504 12.2886 25.5175 12.5238 24.8477L14.6717 21.8066C15.0574 21.3571 15.156 20.9695 16.1895 19.865C16.3973 19.6429 16.3879 19.6016 16.572 19.3826L17.4305 18.4034C17.9797 17.8133 18.0531 17.8339 18.6148 16.9932C18.9406 16.5056 21.5396 13.8972 22.037 13.4968L23.9991 11.8914V10.8104H22.4857C22.4243 11.549 21.804 11.3074 21.3716 11.6422C21.2321 11.7502 21.0424 11.9916 20.8935 12.1371C20.291 12.7259 18.4931 13.878 17.9722 14.4047L13.8374 18.4858C13.9347 18.0678 14.0372 18.0167 14.279 17.7383C15.0384 16.8636 14.3669 18.1034 15.0323 16.762C15.1708 16.4827 15.678 16.0506 15.9184 15.8102L17.0513 14.5648C18.7997 12.7484 20.4731 10.8426 22.2962 9.10756C22.4519 8.95932 22.4618 8.94604 22.6396 8.80227C22.8473 8.63424 22.7818 8.66961 23.0262 8.54026V7.45918C22.201 7.44079 22.3903 7.22603 21.6956 7.64138C21.6753 7.65364 21.6507 7.67254 21.6297 7.68403L21.4823 7.75297C21.2243 7.86584 21.432 7.71071 21.1721 7.87529C20.6928 8.17879 21.4646 7.52468 20.9566 8.09223C20.9306 8.12121 20.7586 8.30252 20.744 8.31197L20.5984 8.38258C20.5735 8.39317 20.5421 8.39905 20.5163 8.40875L19.7075 9.00516C18.9617 9.79704 19.2764 9.03771 18.6623 9.68953L15.9719 12.0801C15.6762 12.3799 15.4598 12.7487 15.0265 12.8643C15.1164 12.5276 16.6521 10.9694 17.0458 10.5596C17.1104 10.4923 17.2017 10.4052 17.2685 10.3499C18.0128 9.73345 17.2635 10.1239 18.2421 9.16131C18.5573 8.8513 18.7845 8.59721 19.1028 8.29231C19.6659 7.75298 19.3971 8.31388 20.0848 7.54472C20.5858 6.98433 21.2948 6.18172 21.9452 5.83762V5.08085C21.4592 5.02773 21.674 5.24262 21.6209 4.75654H20.756C20.6794 5.457 20.7552 4.79803 20.1399 5.22155L17.3252 7.3795C16.9612 7.75055 16.6427 8.0543 15.9995 8.1078C16.401 7.50808 18.1559 5.9833 19.008 4.95457C19.3496 4.54215 19.7952 4.23112 20.3237 4.10791C20.3237 3.00754 20.6248 4.06565 20.648 3.02695C20.1619 2.97371 20.3768 3.18859 20.3237 2.70264C17.9677 2.70264 19.6148 3.35127 18.0535 3.35127C17.9789 4.24696 16.5605 4.67762 16.3558 4.89685C15.7528 5.5428 13.8236 7.16666 13.1485 7.45918Z" fill="#E83427"/>
<path fill-rule="evenodd" clip-rule="evenodd" d="M26.5936 54.3766L26.7882 54.1387C26.7353 54.4413 26.85 54.281 26.5936 54.3766ZM30.7017 48.3228C30.7017 47.876 30.5839 47.0917 30.8351 46.8347C30.9108 46.757 31.9565 46.4119 32.1069 46.3768C31.752 46.9069 31.6973 47.7959 30.7017 48.3228ZM26.5936 54.3766C26.3086 54.8023 25.8722 55.1354 25.475 55.42L25.2423 55.6198C25.1043 55.7526 25.0553 55.8232 24.8976 55.9236C23.5596 56.7755 22.2652 57.7383 21.3363 59.0648C21.1238 59.3683 21.1884 59.1455 21.1884 59.6737C21.5866 59.6737 21.9835 59.6735 22.3815 59.6777L23.2474 59.5706C24.587 59.0357 25.4417 58.705 26.6586 57.7927C26.8757 57.6299 27.0898 57.4144 27.2726 57.2176L27.5501 56.8465C27.7702 56.5469 27.3735 56.8124 27.8909 56.5386V60.5385C27.5577 60.3787 27.4945 60.4304 27.0261 60.4304C27.0261 60.6991 26.9879 60.9812 27.0953 61.226L27.2251 61.4205C27.4898 61.8047 27.9472 62.1508 28.1071 62.5925H29.0801L30.5935 60.8628C30.4707 59.3859 30.3773 57.8172 30.3773 56.2143C30.5558 56.3338 30.689 56.4326 30.8389 56.6177C31.4797 57.4089 30.8547 56.8539 32.134 58.1332C32.5445 58.5437 34.3383 60.6117 35.1458 60.7428C36.5386 60.9692 37.7954 60.4291 39.0969 60.0693C39.2623 60.0235 39.5812 59.8784 39.7824 59.7818C39.7332 59.1912 39.3853 58.9745 39.0266 58.6996C37.1843 57.2874 38.3386 58.2598 36.5614 57.2732L32.9053 54.443C32.4736 54.0542 32.0921 53.8918 31.6643 53.414L31.4536 53.1922C31.1605 52.9315 31.5262 53.1132 31.134 52.9712C31.3221 52.7147 31.479 52.7555 31.7919 52.6562L33.1815 52.3161C33.6026 52.2354 33.9573 52.1363 34.2415 51.8625C34.7944 51.3302 35.0303 50.9573 34.635 50.2272C34.4418 49.8703 34.2049 49.5517 33.8803 49.3601C33.4283 49.0934 33.7093 49.5674 33.5123 49.0794H32.9718C32.8341 49.4599 32.5528 49.4127 32.1253 49.6383C31.6884 49.8691 31.6157 49.915 31.026 50.0524C31.3685 49.5408 32.0444 49.387 32.5731 49.1131L33.6548 48.4652C34.0246 48.2618 34.1876 48.0897 34.4853 47.8903C34.4853 47.1175 34.2171 46.8808 33.6124 46.493C33.2447 46.2572 33.1133 46.0913 32.6475 46.0525C32.8332 45.7753 32.9653 45.4922 33.2962 45.4039V44.6472C32.1517 44.0416 32.4947 43.3321 31.026 43.6743C31.026 43.2615 31.0262 43.0415 30.8568 42.7624L30.2845 42.1454C29.6623 41.6482 27.8812 41.1846 27.8824 42.8011C27.8829 43.3431 27.8909 43.8878 27.8909 44.4309C26.9529 44.5091 27.5784 45.0795 24.5397 45.0795C24.5397 45.9773 25.7696 47.274 26.4607 47.7019C27.0528 48.0683 26.9574 47.8903 27.6747 47.8903C27.8283 48.5497 28.142 50.0605 27.7828 50.8091C27.5156 50.9373 27.6641 50.8454 27.4419 50.9006C27.059 50.9957 27.6249 50.8408 27.2659 50.9408L26.2693 51.3496C26.4569 50.9589 26.4426 50.099 26.2477 49.6416C26.0091 49.0811 25.3936 48.6682 24.8375 48.4574C24.3272 48.2641 24.6217 48.6855 24.4316 48.2146H23.8911C23.8165 48.4955 23.9312 48.3352 23.6748 48.4308C23.796 48.9506 23.8502 48.6908 23.8898 49.4049L24.1131 50.3708C24.2902 50.8736 24.9427 51.2671 25.0802 51.7821C24.6674 51.7913 24.3885 51.899 24.1111 52.1101L23.827 52.3666C23.8107 52.3817 23.7865 52.4029 23.7703 52.4181C23.2999 52.8583 23.4691 53.1386 23.8138 53.5889C24.5202 54.5115 25.4409 54.6451 26.5936 54.3766Z" fill="#00459B"/>
<path fill-rule="evenodd" clip-rule="evenodd" d="M9.1889 55.1332C8.65034 54.8482 8.80585 54.9229 8.44924 54.4673C8.13935 54.0714 7.92664 54.1029 7.67536 53.7278C7.94464 53.3257 7.76486 53.6184 8.28657 53.2579L8.80496 52.9115C9.36612 52.5467 8.97605 52.5834 9.51321 52.5387C9.40507 53.8383 9.1889 54.3325 9.1889 55.1332ZM5.83763 43.566V45.9443C5.83763 46.3605 4.89929 46.7971 4.54497 46.9218C3.86966 47.1597 3.02786 47.3907 2.49121 47.895C2.25602 48.1162 2.27964 48.1161 2.27019 48.5388C2.56309 48.657 2.58799 48.8925 2.86927 49.237C3.2633 49.7194 3.63358 50.0032 4.1392 50.3453C5.31055 51.1375 5.69833 50.5701 4.91985 52.2694L3.85893 54.7761C3.49453 55.5082 2.84757 56.5666 2.29866 57.1074L0.326867 59.3518C0.105467 59.7055 0.00932079 60.1202 0 60.5384C1.38497 60.5384 1.68068 60.4412 2.95303 59.924C3.61558 59.6546 5.3698 57.8164 5.64189 57.3157C5.83763 56.9554 6.27456 56.4942 6.37811 56.1061C6.69463 56.318 6.56529 56.2617 6.77481 56.5742C7.09312 57.0492 7.63424 57.4929 7.7835 58.052C6.486 58.9209 6.44271 59.0592 5.09809 59.6907C4.78604 59.8373 4.47066 60.0768 4.43223 60.5384L4.96224 60.7651C4.98841 60.7742 5.01765 60.7825 5.04383 60.7917C5.06975 60.8008 5.0986 60.81 5.1244 60.8191C5.15006 60.8282 5.17866 60.8387 5.20381 60.8479C5.56196 60.9798 5.03055 60.9708 5.51332 60.9708H7.35104C7.70893 60.9708 7.56197 60.8324 8.00976 60.7646L8.54487 60.6511C8.56759 60.641 8.59365 60.6246 8.61522 60.6134C9.16094 60.3299 9.27955 60.153 9.94554 59.9979C10.6413 61.0368 12.7069 62.7004 13.9454 62.7004L16.7145 62.3419C16.9531 62.2645 17.1374 62.2179 17.3764 62.1316C17.9115 61.9383 18.7539 61.6458 18.8101 60.9708C18.4502 60.8405 18.7385 60.9662 18.4305 60.7018C17.9314 60.273 17.268 60.0505 16.6614 59.7683L15.628 59.3962C15.5461 59.3687 15.4654 59.3452 15.3879 59.3121L11.6753 57.0791V56.5385C11.995 56.4095 11.8412 56.7733 11.9018 56.1164C11.9181 55.9398 11.8742 55.6621 11.8949 55.4608C11.9576 54.8492 12.114 55.2545 12.1128 54.3815C12.1126 54.1894 12.0893 53.9137 12.1099 53.73C12.1653 53.236 12.3147 52.9371 12.4669 52.4652C12.5349 52.254 12.5187 52.4109 12.5471 52.1075C12.6455 51.0556 12.3829 50.7441 11.5989 50.3449L11.4569 50.2706C11.4355 50.2592 11.4079 50.2444 11.3863 50.233L10.956 50.0142C10.4268 49.7961 10.1417 49.9008 9.62123 49.9442C9.59314 50.2821 9.53964 50.3875 9.28747 50.5833C8.94681 50.8477 8.39548 50.8301 8.10781 51.1333L8.31351 50.0418C8.42268 49.2394 8.18059 49.4978 8.69349 48.9082C9.25095 48.2674 9.95192 47.9708 10.67 47.5336L11.1436 47.2504C12.0671 46.6628 13.6211 46.3826 13.6211 45.1875C13.6211 44.0651 12.3623 43.566 11.4591 43.566C11.1205 43.566 10.8308 44.1006 10.5624 44.2908L9.40506 44.8632C9.55649 44.5476 9.56454 44.3676 9.44427 43.9649C9.18418 43.0936 8.60884 42.3767 7.97426 42.078C7.95153 42.0674 7.92485 42.0527 7.90123 42.0429C7.09389 41.7078 6.08469 41.8999 5.75961 42.745C5.48152 43.468 5.83763 43.0974 5.83763 43.566Z" fill="#00459B"/>
<path fill-rule="evenodd" clip-rule="evenodd" d="M109.618 19.2426C109.55 19.8615 109.855 19.1614 108.942 20.08C108.669 20.3546 108.506 20.6489 108.104 20.756C108.104 19.4018 108.429 19.9619 108.429 19.4587C108.429 19.0193 108.496 19.4312 108.284 19.1713C108.27 19.1547 108.249 19.1286 108.234 19.113C107.838 18.7197 106.13 18.9183 105.618 18.9183C105.04 18.9183 104.463 18.9209 103.885 18.9149C102.719 18.9028 103.214 19.0723 102.483 19.2426C102.483 19.5101 102.525 19.8214 102.451 20.0757C102.319 20.5276 102.27 20.1244 102.17 20.6593C102.123 20.9087 102.192 21.2703 102.159 21.5129C102.063 22.2185 101.834 21.6462 101.834 22.0532C101.834 22.4515 102.014 22.5355 101.769 23.0712C101.758 23.0947 101.74 23.1213 101.729 23.1436C101.589 23.4174 101.706 23.0976 101.61 23.3358C101.495 23.6211 101.78 24.0347 101.448 24.6945C101.18 25.2283 101.191 24.7256 101.183 25.6183C101.178 26.211 101.17 26.1637 101.009 26.6335C100.864 27.058 100.923 27.253 100.81 27.6229C100.631 28.2048 100.552 27.6974 100.533 28.5357C100.501 29.9619 100.275 29.3856 100.125 30.5055C99.9944 31.4774 99.7803 31.0678 99.7803 31.3503C99.7803 31.9577 100.109 32.5814 99.456 32.7556C99.5601 34.0066 99.779 33.4125 99.2845 34.0976C99.1488 34.2856 99.2424 34.0593 99.1626 34.3C99.0915 34.5148 99.1317 35.29 99.1317 35.5663C99.9975 35.7681 104.212 35.7681 105.077 35.5663C105.077 34.6117 105.336 34.3034 105.403 33.7296C105.493 32.9569 105.431 33.4241 105.636 32.882C105.772 32.5236 105.796 31.6083 105.856 31.3717C105.99 30.8405 105.84 31.3965 106.035 31.0103C106.285 30.5119 106.062 30.5552 106.179 30.074C106.301 29.5758 106.45 29.9035 106.491 29.3048C106.515 28.9684 106.483 28.4643 106.483 28.1072H106.807C106.807 25.8052 107.064 26.9982 107.13 25.9441C107.174 25.2549 107.099 25.4383 107.545 24.6288C107.556 24.608 107.575 24.5829 107.586 24.5623C107.737 24.2956 107.742 24.5619 107.78 24.1073C108.33 24.047 107.982 23.9295 108.469 23.6075C108.799 23.3893 110.266 23.1345 110.266 23.7829C110.266 26.6083 110.046 25.1924 109.969 26.1024C109.93 26.5609 110.139 26.4874 110.581 26.4935C112.55 26.5212 112.192 26.6462 114.49 26.4931C115.571 26.4211 115.511 26.7997 115.566 25.731C115.603 24.9966 115.706 25.4678 115.855 24.9398L116.057 22.4348C116.279 21.32 116.129 22.0036 115.949 21.0199C115.841 20.4317 115.984 20.4349 115.317 19.7053C114.408 18.7109 113.835 18.8101 112.429 18.8101C112.024 18.8101 111.309 18.8588 110.92 18.9227C110.151 19.0491 110.951 18.9369 110.415 19.1754C110.169 19.2855 109.923 19.2426 109.618 19.2426Z" fill="#E40010"/>
<path fill-rule="evenodd" clip-rule="evenodd" d="M135.022 34.269C135.022 34.6693 134.737 35.1799 134.59 35.4581C135.113 35.7091 139.609 35.9812 140.366 35.6132C140.895 35.3567 140.847 35.0057 140.869 34.8183L141.051 33.5956C141.062 33.5738 141.082 33.5501 141.093 33.5295C141.431 32.9218 141.237 33.3363 141.29 32.6455C141.363 31.7062 141.566 32.6843 141.623 31.6811C141.678 30.721 141.445 31.2174 141.801 30.5615C142.112 29.9883 141.855 30.1237 141.965 29.4286C142.033 29.0049 142.219 28.922 142.259 28.4252C142.365 27.124 142.339 27.8814 142.529 27.3974C142.675 27.026 142.52 26.5749 142.615 26.1867C142.762 25.5924 142.859 26.1748 142.917 25.1913C142.963 24.4096 143.136 24.7186 143.225 24.2023C143.307 23.7313 143.213 23.42 143.346 23.0256C143.665 22.076 143.455 22.8266 143.576 21.9584C143.715 20.9684 143.995 22.2127 143.995 19.6749H144.319C144.319 16.7935 144.472 19.3136 144.641 17.1862C144.728 16.0991 144.936 17.6226 144.961 15.6683C144.972 14.8611 144.992 15.3524 145.194 14.9284C145.406 14.4848 145.218 14.5765 145.306 14.0674C145.479 13.0708 145.617 14.7052 145.617 12.1076C138.03 12.1076 140.128 11.8424 139.608 13.234C139.471 13.6024 139.412 13.2422 139.348 13.839C139.312 14.1768 139.397 14.3018 139.289 14.6446C139.232 14.8249 139.09 15.0001 139.045 15.2657C138.898 16.1415 139.262 15.6572 138.812 16.5457C138.801 16.5673 138.783 16.5919 138.773 16.6148C138.529 17.1874 138.92 17.169 138.53 17.8859C138.519 17.9067 138.498 17.9296 138.487 17.9508C138.476 17.9724 138.458 17.9971 138.448 18.0199C138.315 18.3283 138.389 18.5813 138.376 18.9208C138.358 19.4258 138.358 19.227 138.194 19.6037C137.92 20.2341 138.035 20.6619 137.902 21.0411C137.893 21.0664 137.881 21.094 137.87 21.1175L137.786 21.2494C137.618 21.5397 137.696 21.1025 137.619 21.6234C137.58 21.8882 137.662 22.1783 137.585 22.4534C137.375 23.2 137.406 21.9192 137.299 23.7896C137.259 24.4906 137.222 24.0433 137.049 24.4045C136.894 24.7299 137.001 24.8056 136.964 25.1843C136.91 25.7513 136.902 25.3489 136.722 25.8065C136.445 26.5114 136.92 26.4242 136.46 27.2741C136.081 27.9727 136.587 27.8945 136.152 28.6963C136.052 28.8817 136.071 28.7314 136.013 28.9897C135.911 29.4478 136.129 29.6221 135.881 30.1553C135.672 30.6069 135.706 30.1106 135.667 30.8059C135.608 31.8893 135.524 31.995 135.287 33.0203C135.149 33.617 135.152 33.2924 135.005 33.6117C134.759 34.1482 135.022 33.8828 135.022 34.269Z" fill="#E40010"/>
<path fill-rule="evenodd" clip-rule="evenodd" d="M52.4306 50.7009C52.3605 50.9651 52.4786 50.8471 52.2144 50.9172L52.4306 50.7009ZM52.4306 50.7009C52.5155 50.5851 52.6429 50.4654 52.6779 50.4077C52.7712 50.254 52.7814 50.1141 52.863 49.9442C53.1549 49.9199 53.1571 49.8935 53.4035 49.8361C53.4645 50.0982 53.5166 50.2698 53.6197 50.4847C52.9112 50.5004 53.3578 50.7009 52.4306 50.7009ZM53.6197 47.9984H52.6467V47.5659C53.4283 47.5659 53.1626 47.3497 53.944 47.3497V47.6741C53.944 47.923 53.8688 47.9984 53.6197 47.9984ZM54.1603 43.3498C54.2694 43.8184 54.1603 44.5147 54.1603 45.2957C53.987 45.2919 54.1116 45.3071 53.9661 45.2738L52.3224 44.8633C52.3224 43.76 51.7152 43.9764 52.719 43.7517L54.1603 43.3498ZM50.2685 42.3769C49.6471 42.3769 49.9046 44.6154 50.0387 45.0931C50.3952 46.363 49.9353 47.7026 50.7351 49.6939C50.9048 50.1162 50.9652 50.367 51.2816 50.6797C51.53 50.9252 51.6778 50.9316 51.406 51.075L49.6496 51.4875C49.4999 51.5338 49.6144 51.5587 49.2956 51.5658C49.2956 51.9812 49.3124 52.1184 49.5387 52.5118C49.6798 52.7571 49.7178 52.8347 49.9396 52.9757C51.3218 53.8546 53.1257 52.3816 53.836 52.3224V53.1874L50.1182 54.2262C50.0899 54.2344 50.061 54.2406 50.0323 54.2484L47.8862 54.805C46.552 55.2571 46.4291 55.7531 47.2554 56.849C47.6253 57.3394 48.2185 57.4034 48.755 57.4034L49.9442 56.971C49.9843 57.4537 50.2953 57.9684 50.5157 58.4534C50.698 58.8544 50.9122 58.9719 51.0252 59.4573C51.5957 59.305 51.9 59.036 52.1239 58.5021C52.2255 58.26 52.2144 58.736 52.2144 58.2682C52.2144 57.7662 52.1341 57.3901 51.7999 56.953C51.5981 56.6888 51.4339 56.6097 51.2415 56.3223L52.2845 55.96C53.7542 55.2238 53.944 55.3051 53.944 56.2142C53.944 57.114 53.9356 57.861 53.8517 58.6084C53.7001 59.9588 54.3626 60.6466 52.863 60.6466C52.8812 61.4601 53.7858 62.3715 53.944 62.8086H53.968C54.467 62.8064 54.6946 62.7349 54.9696 62.3207C55.2074 61.9628 54.8962 62.2597 55.2886 61.883L56.2751 61.0287C56.5465 60.7806 56.5841 60.5472 56.6263 60.351C57.0098 58.573 56.6466 56.6045 56.6466 54.8089C57.4029 54.8089 58.1063 54.4846 58.9168 54.4846C59.6849 54.4846 60.3448 54.7462 60.9037 54.4177C60.9347 54.3994 61.6195 54.2198 61.6195 53.7278C61.6195 52.9042 61.3084 52.7258 60.5471 52.4219C60.5225 52.4122 60.4939 52.4012 60.4698 52.391C60.4461 52.3811 60.4177 52.3688 60.3944 52.3583L59.7353 52.0298C59.4563 51.9594 59.3158 52.035 59.0693 52.1462C59.0454 52.1571 59.0184 52.1711 58.9948 52.1822C58.9641 52.1967 58.8786 52.2392 58.8481 52.2534C58.8251 52.2641 58.7976 52.2775 58.7745 52.2881L58.3943 52.4486C57.9865 52.6197 57.6434 52.6142 57.1903 52.65C56.7246 52.6867 56.8367 52.7683 56.4305 52.863C56.4305 51.7197 56.2553 51.7914 56.8081 50.8624C57.0237 50.5003 56.9709 50.6987 56.9709 50.1604C56.7049 50.053 56.7831 49.9043 56.6466 49.6199H55.7818C55.9818 48.7614 56.4233 48.052 56.6479 47.2427C56.6934 47.0788 56.7045 46.9723 56.7561 46.8104C56.8771 46.4298 56.7683 46.7657 56.9146 46.4285L57.9928 44.2635C58.2019 43.9228 58.2569 43.9645 58.2682 43.4579C57.9014 43.3099 58.1567 43.3329 57.9463 43.023L57.6927 42.7361C57.2848 42.3201 56.7576 42.286 56.2545 42.0124C55.8884 41.8132 55.8918 41.7283 55.3494 41.7283C55.211 42.0711 55.4174 41.8459 55.0068 42.0343L53.7996 42.3405C52.601 42.616 51.5516 42.3769 50.2685 42.3769Z" fill="#00459B"/>
<path fill-rule="evenodd" clip-rule="evenodd" d="M56.2142 19.675C56.2142 20.2498 55.9729 19.9577 55.8963 20.9786L55.7813 21.5123C55.6386 21.7812 55.5796 21.3335 55.5636 22.3756L55.212 24.294C55.004 25.0069 54.9434 24.2538 54.9117 25.1831C54.8747 26.2704 54.7725 25.9954 54.5901 27.2396C54.4948 27.8893 54.464 27.4338 54.2636 27.9941C54.1548 28.2984 54.2337 28.6536 54.146 29.0657C53.9746 29.8701 53.9036 28.9005 53.8297 29.8306C53.619 32.4823 53.3313 32.1627 53.2055 32.6656C53.1291 32.9703 53.2292 33.4191 53.1459 33.7951C52.9699 34.5883 52.863 33.8239 52.863 35.35C52.863 35.8145 53.288 35.6589 53.7158 35.6863C56.058 35.8367 56.4339 35.7638 58.8087 35.5663C58.8087 35.3416 58.7811 34.6785 58.8267 34.5032C58.949 34.0327 59.0228 34.3917 59.121 33.9326C59.1367 33.8588 59.1382 33.7062 59.1395 33.6268C59.1555 32.5549 59.0551 33.1016 59.3172 32.6154C59.6062 32.0794 59.3739 32.1173 59.4839 31.593C59.6001 31.0387 59.7431 31.4297 59.7838 30.7037C59.8822 28.9466 60.0266 30.359 60.1953 28.737C60.2632 28.0839 60.1982 28.2721 60.4148 27.7672C60.6439 27.2329 60.4605 27.3623 60.5425 26.814C60.7327 25.5406 60.7431 27.686 60.8572 25.399C60.8845 24.8526 60.8681 25.1435 61.0028 24.8958C61.3439 24.2685 61.1202 24.7141 61.1827 23.8866C61.2529 22.9541 61.4013 23.9311 61.512 23.0268C61.5782 22.4853 61.3996 22.4379 61.6251 21.9508C61.9414 21.2679 61.7875 21.8229 61.8335 20.9701C61.9013 19.7143 62.16 21.4796 62.16 18.9182H56.2142V19.675Z" fill="#E40010"/>
<path fill-rule="evenodd" clip-rule="evenodd" d="M1.51339 27.0298L1.92912 27.0133C1.92925 26.3969 2.02756 26.1917 1.78816 25.7721C1.5785 25.4045 1.46065 25.0547 1.72968 24.6854C2.15192 24.8195 1.894 24.7886 2.05399 25.2965C2.83962 25.4076 2.84881 24.9043 2.97024 24.5811C3.11005 24.2088 2.9401 24.4778 3.2279 24.1983L5.50779 21.9405C5.91267 21.2688 5.29456 20.3631 5.83759 19.9543C6.17838 20.1438 6.05146 20.7861 6.05325 21.5128C6.05465 22.0895 6.05389 22.6657 6.05363 23.2425C6.23507 23.3696 6.00843 23.3103 6.37909 23.3488C6.39174 22.0769 6.32751 20.6221 6.66638 19.4204C6.7933 18.97 6.6554 18.6024 6.74541 18.1956C6.80772 17.9134 6.82534 18.0965 6.94805 17.6421C7.34565 16.1688 7.2195 17.0535 7.62438 16.2739C7.79011 15.9546 7.70315 15.58 7.88536 15.1278C8.50934 13.5789 8.42801 14.1419 8.63805 13.8281C8.96746 13.336 8.40043 13.7257 9.18631 12.9689C9.53833 12.6299 9.24287 12.9894 9.41358 12.5472L9.67827 12.0513C9.83149 11.74 9.65886 11.8954 9.87324 11.6003C10.1018 11.2858 10.2379 11.4444 10.447 10.8974C10.7828 10.0193 10.5696 10.7499 11.0064 10.0311C11.7716 8.77163 12.1439 8.79564 12.8379 7.7835C12.8956 7.40467 12.8167 7.64471 12.9725 7.60602L13.1484 7.45919C13.3162 7.08661 13.1384 7.42446 13.3407 7.18071L16.4586 3.7024C16.7586 3.40477 19.4867 0.981876 19.5434 0.619769C19.6177 0.145303 19.3939 0.418031 19.2426 0H18.0535C17.9888 0.59053 17.7581 0.303375 17.3144 0.558229C16.8019 0.852791 17.4244 0.683357 16.621 1.27031C16.3189 1.49095 16.0889 1.63306 15.7977 1.85229C14.723 2.66115 12.8623 4.05531 11.9726 4.94577C9.33021 7.59019 6.97384 9.38157 4.83146 12.9393C4.61517 13.2983 4.47829 13.4156 4.26187 13.7751L3.72063 14.5311C3.33758 15.1252 3.73914 14.9073 2.98697 15.8513C2.83477 16.0424 2.9779 15.8151 2.85813 16.047L2.57429 16.6279C2.56357 16.6506 2.55055 16.6786 2.54046 16.7021L1.76479 19.0615C1.60238 19.4189 1.69469 19.1057 1.59421 19.3234C1.38941 19.7669 1.65013 19.871 1.33527 20.5789L1.40166 25.7325C1.40243 26.3596 1.51339 26.4857 1.51339 27.0298Z" fill="#EA5422"/>
<path fill-rule="evenodd" clip-rule="evenodd" d="M97.5102 14.8103H96.6452C96.6655 13.9032 97.0893 14.3779 97.9425 14.3779L97.5102 14.4859V14.8103ZM97.8345 13.0807H96.9696C97.1719 12.7786 97.765 12.2461 97.8345 13.0807ZM109.294 15.2427C109.43 14.7305 109.51 15.1513 109.51 14.1616C109.2 14.0896 108.682 13.9544 108.239 14.0786C107.74 14.2188 107.951 14.5228 107.456 14.7022C107.456 13.4931 107.78 14.0139 107.78 12.9725C108.369 12.8353 108.786 12.8644 109.51 12.8644C109.563 12.3784 109.348 12.5933 109.834 12.5401V11.1348H108.212C108.116 10.7225 108.104 10.705 108.104 10.1619H106.591L106.265 10.8087C106.028 11.2458 106.33 11.1348 105.618 11.1348C105.598 12.0368 105.294 11.2942 105.294 12.3239C104.957 12.0776 105.077 12.035 105.077 11.4591C104.426 11.4591 104.481 11.6149 104.429 11.1348H101.834C101.751 11.8966 101.71 10.8674 100.625 12.196C99.7427 13.2774 100.471 13.494 99.8884 13.7293C100.007 13.4815 100.044 12.9396 100.005 12.5332C99.9309 11.7543 100.018 12.3898 99.8261 12.0619C99.6931 11.8351 99.6722 11.9161 99.6722 11.4591C99.021 11.4591 99.0761 11.6149 99.0236 11.1348H96.4291C96.3481 11.8751 96.4634 11.139 95.8103 11.5971L95.5944 11.8136C95.2024 12.21 95.2501 12.199 94.9856 12.7182C94.8101 13.0628 94.3751 14.7441 94.3751 15.2427C95.1354 15.4457 94.242 15.5838 95.1874 16.2681C95.4771 16.4779 98.0865 16.6468 98.7823 16.0825L98.9548 15.9307C99.6981 15.2234 98.9945 15.3169 99.6722 15.2427V14.4859C99.3235 14.3704 99.5007 14.4166 99.6405 14.1572C99.7535 13.9478 99.7238 14.0268 99.7804 13.9455C99.7804 14.9317 99.6869 15.4725 100.232 15.9806C100.744 16.4585 101.452 16.5554 102.184 16.4659C102.811 16.389 103.483 16.582 104.213 15.9995C104.515 15.7577 104.298 15.9868 104.482 15.6199C104.828 14.927 104.932 14.9316 104.753 14.1616H102.915L102.791 14.8067L102.051 14.8103C102.02 14.5305 101.778 14.338 101.981 13.6638C102.122 13.1943 102.569 12.8814 102.699 12.8644C103.14 12.9672 103.45 13.1928 103.564 13.6212C104.566 13.6212 105.186 13.7336 105.186 12.6482C105.547 12.8397 105.88 12.937 105.489 14.1408C105.233 14.9295 105.186 14.7395 105.186 15.8913L106.069 16.4131C106.77 16.5401 108.107 16.5341 108.634 16.0963L109.254 15.3117C109.263 15.2975 109.278 15.2644 109.294 15.2427Z" fill="#211511"/>
<path fill-rule="evenodd" clip-rule="evenodd" d="M1.51337 27.0298C1.52409 27.5032 1.716 27.4425 1.81151 27.8091C1.89884 28.1441 1.74907 28.1118 1.98719 28.4982L2.29299 29.0573C2.37356 29.2381 2.37381 29.2325 2.47992 29.4109C3.00252 30.2903 2.68179 30.1683 3.04709 30.5733C3.66826 31.262 4.19763 32.0691 4.95146 32.6476L5.06918 32.1945C5.81523 32.526 5.56127 32.987 7.84333 30.547L10.3999 27.8909C10.3765 27.8723 10.3336 27.8258 10.3207 27.8488C10.3206 27.849 9.92595 27.6988 9.81142 27.454L11.0215 27.4301L11.1521 27.0296C8.77759 26.9973 9.57738 27.1385 8.54686 26.3683C8.34882 26.2202 8.13151 26.1616 7.91266 26.0286C7.65934 25.8744 7.5406 25.7222 7.34818 25.5148C6.92236 25.0556 7.1956 25.2798 6.96054 24.8237C6.59154 24.1074 6.3755 23.9957 6.37908 23.3489C6.00842 23.3103 6.23505 23.3697 6.05361 23.2425C6.05387 22.6658 6.05464 22.0896 6.05323 21.5128C6.05144 20.7862 6.17836 20.1438 5.83757 19.9543C5.29454 20.3632 5.91265 21.2688 5.50777 21.9406L3.22788 24.1984C2.94008 24.4779 3.11003 24.2088 2.97022 24.5812C2.84879 24.9043 2.8396 25.4076 2.05397 25.2966C1.89399 24.7886 2.1519 24.8195 1.72966 24.6855C1.46063 25.0547 1.57848 25.4046 1.78814 25.7722C2.02754 26.1917 1.92923 26.3969 1.9291 27.0134L1.51337 27.0298Z" fill="#ED6A16"/>
<path fill-rule="evenodd" clip-rule="evenodd" d="M70.1597 58.7007C70.1597 58.1176 70.1333 57.336 70.484 57.0791C70.9498 57.4204 70.5565 57.4974 70.7279 58.0366C70.8696 58.4825 70.9875 58.1614 71.457 58.0521C71.7442 58.4812 71.9558 58.4903 72.1056 59.133C70.9276 60.8921 70.1597 59.1023 70.1597 58.7007ZM68.8625 57.8358C69.3465 57.723 69.2096 57.6209 69.6191 57.5115V59.133C69.2255 59.028 69.3461 59.0424 69.1435 58.6357C68.9769 58.3013 68.9143 58.2403 68.8625 57.8358ZM72.7542 58.1601C72.4007 58.0657 72.2859 57.8888 72.1056 57.6196C72.3506 57.2537 72.6161 56.9103 73.1865 56.8628C73.1338 57.497 72.8747 57.6425 72.7542 58.1601ZM68.8625 56.8628C68.8625 55.8862 68.8881 55.1851 69.5111 55.1333C69.7486 55.556 69.7626 56.3866 68.8625 56.8628ZM69.7272 54.1603C69.4728 54.2196 69.4079 54.2611 69.0786 54.2684C69.0786 53.3266 68.9434 53.0992 69.8354 53.0792C69.8354 53.4023 69.8593 53.865 69.7272 54.1603ZM71.6731 56.971C70.874 56.7576 71.341 56.0788 70.2677 56.6467C70.3903 56.1209 70.6858 55.8752 70.8083 55.3494C70.9761 55.5425 70.838 55.3839 70.9848 55.6053C71.1319 55.827 70.9716 55.6448 71.1602 55.8623C71.3801 56.1162 71.4008 56.0702 71.6731 56.2142C72.5899 55.4175 72.7644 54.3393 72.862 53.1852C72.8961 52.7821 73.6499 51.5168 73.228 54.0937C73.1401 54.6312 73.2985 55.0756 73.0548 55.4337L71.6731 56.971ZM72.4299 52.6468C72.0572 52.6468 72.0112 52.5669 71.6731 52.5388L71.3446 53.2912C71.2048 53.5979 71.1415 53.793 71.0098 54.1456C70.8397 54.6019 70.5507 55.3038 70.1597 55.5656C70.1597 53.2706 71.1399 52.3225 69.5111 52.3225C68.8992 52.3225 68.1831 52.7136 67.8516 53.0414C67.3902 53.4978 67.6006 53.8456 67.3609 55.037C67.1007 56.3305 65.7962 60.2554 67.3489 61.2952C68.3068 60.3866 67.8847 58.7425 68.7543 58.1601C68.7543 58.8034 68.9503 59.6252 69.1266 60.1661C69.3594 60.8805 69.5673 61.1979 70.1597 61.5114C70.3568 61.2169 70.4728 61.1503 70.484 60.6466C70.8819 60.6797 70.7924 60.7546 71.3488 60.7546C71.9842 60.7546 72.2916 60.0914 72.7542 59.7817C73.7093 60.4213 74.3196 61.4032 76.1054 61.4032C76.666 61.4032 77.1615 61.1919 77.4026 60.8627C76.9224 60.1456 76.0591 60.6004 74.1231 59.4937C72.8968 58.7928 73.3391 58.5629 73.8054 57.4817C74.0383 56.9415 74.124 56.7227 74.2676 56.1062C73.8219 55.8077 73.8367 55.971 73.619 55.6737C73.951 55.2207 74.4152 55.2433 74.5919 54.4846C74.0209 53.7053 73.891 54.9512 74.3221 52.7955C74.4096 52.3582 74.255 51.8901 73.8352 51.8901C73.05 51.8901 72.832 52.6468 72.4299 52.6468Z" fill="#322C2A"/>
<path fill-rule="evenodd" clip-rule="evenodd" d="M117.401 14.8102H116.32C116.32 14.669 116.305 14.3997 116.323 14.2724C116.391 13.7921 116.348 14.119 116.467 13.876C116.679 13.4416 116.645 13.566 116.645 12.9725H117.726C117.726 14.6145 117.476 13.9141 117.401 14.8102ZM109.294 15.2427V16.3238C112.193 16.9992 111.284 15.1044 111.688 14.3937L111.876 14.0418C111.909 13.8947 111.888 13.4715 111.888 13.2968C112.412 13.157 112.013 13.1123 112.537 12.9725C112.407 13.3305 112.445 13.1002 112.392 13.2598C112.32 13.4748 112.327 13.3068 112.32 13.6211C113.472 13.8894 113.778 13.8041 114.374 13.405C114.374 14.1205 114.236 15.2659 114.392 15.7623C114.775 16.9762 117.915 16.4083 118.271 16.2207C119.078 15.7955 118.681 16.1336 119.06 15.4963C119.284 15.1204 119.568 14.6671 119.643 14.2414C119.694 13.9514 119.628 13.7003 119.718 13.4513C119.781 13.2755 120.32 12.9421 119.861 12.1353C119.684 11.8253 119.682 11.9701 119.563 11.4591C118.912 11.4591 118.967 11.6149 118.915 11.1348H116.104C116.034 11.7752 116.173 11.2631 115.511 11.5145C115.23 11.6212 115.124 11.7787 114.995 12.0792C114.933 12.222 114.853 12.4481 114.807 12.6482C114.299 12.2761 114.839 12.3137 114.449 11.8166C114.192 11.4872 114.178 11.7849 113.834 11.1348H112.645V11.4591H112.212V11.1348H110.375C110.364 11.6066 110.282 11.7161 110.116 12.0707C109.791 12.7677 110.07 12.4932 109.988 13.0296C109.847 13.9508 109.652 13.0505 109.64 13.9085L109.618 15.0265L109.294 15.2427Z" fill="#211511"/>
<path fill-rule="evenodd" clip-rule="evenodd" d="M97.2938 56.9709L97.3261 57.0031C97.324 57.0011 97.2831 56.9817 97.2938 56.9709ZM97.5101 54.5926C97.4098 54.9684 95.4958 57.69 94.8692 58.1135C94.3578 58.4593 93.9608 58.5355 93.9427 59.3493C94.5843 60.3074 95.2033 59.6648 95.8095 59.0541C96.4774 58.381 97.0274 57.3824 97.2938 57.1871L96.9044 59.7167C96.7199 60.9629 96.9536 61.4268 97.7263 61.8356C98.0059 61.418 98.0383 61.5439 98.188 60.8919C98.5064 59.5043 97.6519 59.6138 99.3977 59.1828C99.9186 59.0542 100.091 58.9686 100.105 58.3763C99.5926 58.2569 99.7916 58.1157 99.335 58.2465C98.8342 58.39 99.0837 58.4843 98.3749 58.4843C98.3749 56.5674 98.6547 57.7903 99.8631 57.0537C100.194 56.8517 100.202 56.8178 100.213 56.3223C99.4711 56.1495 98.8813 56.4782 98.1588 56.6466C98.1759 55.8781 98.5395 55.7892 99.2097 55.643C99.7946 55.5154 100.47 55.2329 100.627 56.0162C100.753 56.6453 100.719 59.7267 100.537 60.1059C100.172 60.2749 99.9623 60.04 99.456 59.9979C99.7193 60.391 99.9842 60.5755 100.214 61.0773C100.422 61.5298 100.512 61.9209 100.753 62.3761C101.181 62.3405 101.588 62.0504 101.746 61.7475C101.92 61.4153 101.854 60.6872 101.791 60.2571C101.644 59.2483 101.488 58.4837 101.334 57.4658C101.233 56.7966 102.336 53.7579 99.8854 54.9138C99.377 55.1536 98.967 55.0609 98.5911 55.2412C98.6197 53.9599 100.699 53.9399 101.9 53.6854C102.523 53.5535 102.624 53.5137 102.915 53.0792C102.788 52.8381 102.735 52.7536 102.591 52.5387C101.745 52.5387 101.563 52.6978 100.885 52.8866C100.483 52.9986 99.7208 53.2846 99.2397 53.2953C99.2555 52.589 99.456 52.1605 99.456 51.2414C99.138 51.1673 99.1261 51.1333 98.6992 51.1333C98.2741 51.7683 98.034 52.6546 97.8344 53.5116C97.1538 53.5267 97.2006 53.7394 95.7811 53.7283C94.6009 53.7192 94.5182 53.6061 93.9427 54.2683C94.4602 56.4898 96.2789 54.6951 97.5101 54.5926Z" fill="#322C2A"/>
<path fill-rule="evenodd" clip-rule="evenodd" d="M41.4039 53.836C42.1514 53.836 42.0536 53.7464 43.1214 53.2831C44.1358 52.843 43.5957 52.7627 44.2146 52.5388L44.201 54.6873C44.1099 55.2355 43.9984 54.8214 43.9984 55.2413V59.5655C43.9984 60.0562 44.8018 60.8101 45.4038 60.9709C45.7073 60.5175 45.8752 60.6358 45.9398 59.8853C46.1439 57.5127 45.8272 52.3399 46.1972 50.8457C46.2643 50.575 46.2559 50.3777 46.33 50.1138C46.4288 49.7622 46.5855 49.1051 46.9172 48.9713V48.4307C46.6167 48.3094 46.8686 48.4362 46.7051 48.2105C46.6874 48.1859 46.6405 48.1032 46.6227 48.0766C46.5865 48.0229 46.5074 47.9032 46.491 47.884C46.4639 47.8522 46.2397 47.6636 46.1973 47.637L45.4121 47.2333C45.0134 47.0641 44.6249 47.1334 44.1066 47.1334L42.1982 51.0629C42.1556 51.1556 42.0515 51.3971 42.0347 51.4398L41.3991 53.1825C41.3851 53.3569 41.4039 53.6477 41.4039 53.836Z" fill="#00459B"/>
<path fill-rule="evenodd" clip-rule="evenodd" d="M86.2672 12.3239C86.2672 12.8237 86.4721 12.8495 86.2265 13.2475C85.8981 13.7794 85.9573 13.2561 85.9433 14.1622C85.9299 15.0302 85.6186 14.8015 85.6186 16.3238C88.0852 16.529 87.8726 16.6038 90.2706 16.4353C90.8041 16.3979 90.4943 16.5013 90.8523 16.2604C91.4021 15.8903 91.24 16.1056 91.24 14.486H88.2131C88.234 13.5496 88.4623 14.5234 88.5374 13.6212H91.24C91.563 12.7293 91.5644 14.2334 91.5644 11.7835H88.8617C88.9543 10.6712 91.1548 11.571 91.899 11.1452C91.9194 11.1336 91.9456 11.1157 91.9639 11.1019C92.4966 10.7011 92.2796 9.66355 92.1945 9.084L87.3483 9.08081C87.2555 9.92964 87.2252 8.71219 86.8823 10.2363C86.8365 10.4393 86.8342 10.4026 86.7446 10.6393C86.5578 11.1325 86.6675 11.0532 86.5751 11.5507C86.497 11.9701 86.2672 11.9867 86.2672 12.3239Z" fill="#211511"/>
<path fill-rule="evenodd" clip-rule="evenodd" d="M110.915 58.0521C110.915 58.6657 111.631 58.2704 112.104 58.1601C112.407 58.3628 112.754 58.6263 112.861 59.025C112.698 59.2685 109.871 62.3404 110.63 57.9836C110.76 57.2429 110.919 57.3628 111.456 57.0791C111.434 58.0223 110.915 57.396 110.915 58.0521ZM112.32 56.7548C112.541 56.425 112.754 56.3226 113.077 56.1062C112.961 56.6038 112.902 56.7418 112.32 56.7548ZM111.347 56.3223C111.408 56.0948 111.549 55.8996 111.716 55.7182C111.893 55.5268 112.064 55.4179 112.32 55.3494C112.493 55.6066 112.451 55.462 112.537 55.7819L111.347 56.3223ZM111.023 55.8899C111.034 55.396 111.201 55.0541 111.239 54.5926H111.672C111.949 55.0864 111.436 55.6133 111.023 55.8899ZM111.456 53.0792C111.456 52.7373 112.334 52.6468 112.645 52.6468C112.645 53.7576 112.592 53.836 111.888 53.836C111.54 53.836 111.456 53.4102 111.456 53.0792ZM109.834 59.7816V60.8627C109.834 61.1809 110.471 61.7275 110.807 61.7275C111.035 61.7275 112.792 60.5726 113.077 59.3493C113.434 59.4446 114.357 60.3524 115.04 60.3953C115.342 60.4142 116.72 59.4328 116.861 59.2412C116.403 59.2309 115.646 58.8346 115.009 58.6065C113.977 58.2368 113.858 57.8496 113.401 57.7277C113.447 57.1781 113.329 57.5565 114.208 56.9126C115.353 56.0734 114.91 54.8921 114.443 54.9867C114.112 55.0538 113.776 55.4951 113.51 55.6737C113.397 55.2536 113.206 55.2706 112.969 54.917C113.649 54.4618 114.028 53.4915 114.04 52.6283C114.045 52.2148 113.949 52.0278 113.553 51.8467C112.669 51.4425 111.509 51.8977 110.819 52.3347C110.514 52.5278 110.674 52.2962 110.553 52.7172L109.834 59.7816Z" fill="#322C2A"/>
<path fill-rule="evenodd" clip-rule="evenodd" d="M56.8628 15.567C56.8628 16.829 57.0959 15.9015 57.2953 16.648C58.7359 16.648 60.1832 16.6344 61.6228 16.6514C62.0837 16.6568 62.2709 16.711 62.5768 16.5243C62.5978 16.5115 62.8187 16.2844 62.8388 16.2458C62.9631 16.0084 62.8707 16.077 62.9728 15.8393C62.9829 15.8159 62.9964 15.7881 63.0074 15.7658C63.0181 15.7441 63.0362 15.7189 63.0477 15.698C63.3833 15.082 63.241 15.0251 63.241 13.9454H63.5653V12.1077H57.9439C57.8498 12.4602 57.724 12.4696 57.6464 12.8913C57.3826 14.3254 57.3811 13.639 57.2807 14.7956C57.2402 15.2614 57.2573 15.4616 56.8628 15.567Z" fill="#E40010"/>
<path fill-rule="evenodd" clip-rule="evenodd" d="M120.753 11.4589H120.428C120.428 13.3844 120.311 12.3452 120.123 13.0991C119.997 13.5988 120.275 13.7029 119.926 14.4163C119.647 14.989 119.816 14.9648 119.763 15.7883C119.738 16.1773 119.599 16.2002 119.952 16.3673C120.493 16.6234 120.992 16.3757 121.617 16.3236C121.617 15.0121 121.813 15.758 121.953 14.822L122.096 13.7757C122.272 13.2811 122.374 13.9671 122.374 12.9724C122.946 12.9596 122.667 12.874 123.131 12.9724C123.238 13.3756 123.32 13.4549 123.149 14.0713C123.035 14.4793 123.093 14.2451 123.019 14.3737L122.851 14.6381C122.765 14.8728 122.789 15.8277 122.698 16.2155C123.556 16.6695 123.648 16.4065 124.644 16.3236C124.67 15.1735 124.968 15.3658 125.065 14.9062C125.12 14.6437 125.038 14.2308 125.088 13.9563C125.263 12.9924 125.401 14.5351 125.401 12.1076C125.401 11.8473 125.418 11.9333 125.122 11.63L124.496 11.175C124.348 11.1235 124.38 11.1399 124.219 11.1253C122.744 10.991 123.597 11.4589 122.374 11.4589C122.238 10.9483 122.176 11.1346 120.753 11.1346V11.4589Z" fill="#211511"/>
<path fill-rule="evenodd" clip-rule="evenodd" d="M38.8008 13.2539L38.8067 13.5145C39.489 13.7538 39.4629 13.6815 39.9828 14.2846C40.28 14.6294 40.0009 14.4804 40.3406 14.5727C40.4725 14.6086 40.646 14.5974 40.7841 14.5999C40.8551 15.7518 41.4126 15.2797 41.82 16.226L42.3938 16.2223C42.7119 15.7869 43.111 15.4672 43.5137 15.0816C43.9966 14.6192 44.0224 14.224 44.8661 14.2009L44.8963 13.5675L45.2956 13.5365C45.2524 13.1039 45.2418 13.4855 45.031 13.0192L44.6682 12.1945C44.4772 11.7418 44.7124 11.9184 44.0444 11.4131C43.7333 11.1777 43.3784 10.7017 43.1639 10.5639C42.9795 10.4454 42.8364 10.4417 42.5811 10.2805C42.1773 10.0253 42.6026 10.0358 41.9444 10.0767C41.7692 10.1543 41.5826 10.269 41.4344 10.4043C40.7969 10.9867 41.817 10.1892 40.4897 11.7331C39.6213 12.7432 40.0027 11.5043 38.8008 13.2539Z" fill="#A6A7A9"/>
<path fill-rule="evenodd" clip-rule="evenodd" d="M136.752 53.4035C138.927 53.4035 139.322 52.3224 140.428 52.3224C141.32 52.3224 140.879 54.2097 140.927 54.8593C141.042 56.4043 140.944 56.7863 141.175 58.71C141.399 60.5656 141.365 60.129 138.482 59.4573C138.881 60.0541 138.862 59.6408 139.453 60.9722C139.864 61.8976 140.287 63.3125 141.809 61.92C143.329 60.5302 141.21 57.9727 141.984 53.771C142.059 53.3632 143.223 51.6368 140.843 51.253C139.444 51.0272 139.873 51.5513 138.765 51.7406C137.947 51.8801 136.907 51.8444 136.298 52.0848C135.497 52.4004 135.746 53.4035 136.752 53.4035Z" fill="#322C2A"/>
<path fill-rule="evenodd" clip-rule="evenodd" d="M128.86 11.4592V11.7835H128.536C128.536 12.9567 127.927 12.7391 127.88 13.6138C127.804 15.0215 127.887 14.9495 127.887 15.9996H128.212V16.3239C128.701 16.3347 128.641 16.432 129.185 16.432C130.172 16.432 131.335 16.5934 131.846 16.175C132.896 15.3165 132.752 15.0129 132.752 14.1617H130.914C130.825 14.9789 130.787 13.9933 130.698 14.8103H129.833C129.833 14.6691 129.818 14.3999 129.836 14.2726C129.904 13.7922 129.861 14.1191 129.98 13.8761C130.192 13.4417 130.158 13.5661 130.158 12.9726C130.936 12.9726 130.695 12.8052 131.132 13.0703C131.392 13.2286 131.48 13.311 131.563 13.6212H132.752C133.005 12.6746 133.184 14.1644 133.184 12.1078C133.184 11.7785 132.729 11.5654 132.472 11.4467C132.448 11.4356 132.332 11.3882 132.311 11.3765C131.997 11.2008 132.145 11.1307 131.463 11.1268C131.114 11.1249 130.385 11.0704 130.094 11.1797L129.896 11.3055C129.508 11.5356 129.539 11.4592 128.86 11.4592Z" fill="#211511"/>
<path fill-rule="evenodd" clip-rule="evenodd" d="M79.781 56.6466C79.781 57.1423 79.7102 57.8357 80.6458 57.8357C81.1606 57.8357 81.5046 56.8886 81.835 56.6466L81.5887 59.3266C81.2246 60.3559 81.9585 61.4031 82.1594 61.4031C83.268 61.4031 83.0192 59.7854 83.1794 58.7449C83.3827 57.4253 82.879 56.6416 82.3755 55.8898C83.1048 54.8008 83.7809 54.3396 83.7809 52.863C83.7809 51.917 82.9511 50.8005 82.3678 51.8824C81.708 53.1067 81.4688 53.9437 80.4541 55.1577C80.1214 55.5558 79.781 55.9518 79.781 56.6466Z" fill="#322C2A"/>
<path fill-rule="evenodd" clip-rule="evenodd" d="M122.59 59.5655C122.59 60.3208 122.83 61.0789 123.563 61.0789C123.735 61.0789 124.09 60.7966 124.361 60.6879C124.67 60.564 124.991 60.4999 125.3 60.4371C125.965 60.3016 126.706 60.2535 127.239 59.998C127.432 60.2868 127.647 60.5238 128.005 60.6451C128.468 60.8021 128.86 60.666 128.86 59.998C128.86 59.3739 127.722 58.1601 127.131 58.1601C126.883 58.1601 127.005 58.1968 126.698 58.2683C126.55 58.5322 126.59 58.4682 126.59 58.9169C126.101 58.9278 126.161 59.0251 125.617 59.0251C125.705 57.9758 126.698 58.5881 126.698 57.0792C126.698 56.1509 125.628 54.7656 124.708 57.0346C124.051 58.6552 122.59 58.8628 122.59 59.5655Z" fill="#322C2A"/>
<path fill-rule="evenodd" clip-rule="evenodd" d="M93.4021 9.40512H93.0778C93.0778 9.65104 93.1057 10.1535 93.0698 10.3701C92.9851 10.8819 92.8791 10.566 92.7713 11.0446C92.6405 11.626 92.9386 11.0485 92.4973 12.7164L92.121 14.286C92.0712 14.5987 92.1586 14.9126 92.0583 15.1963C91.856 15.7701 91.6725 15.2182 91.6725 15.8914C91.6725 16.7757 93.486 16.3617 93.9427 16.3238C93.9427 14.5249 93.9464 15.3832 94.2083 14.5355C94.3151 14.1894 94.2171 14.0087 94.3165 13.6707C94.4746 13.1329 94.5503 13.5956 94.5937 12.8668C94.6739 11.5198 95.2399 10.3975 95.2399 9.40512H94.9156V9.08081H93.4021V9.40512Z" fill="#211511"/>
<path fill-rule="evenodd" clip-rule="evenodd" d="M85.4024 59.2412C85.4024 58.7958 85.7087 58.5805 86.0726 57.9655C86.3523 57.4928 86.4265 56.971 87.1321 56.971C88.0121 56.971 86.9823 58.8944 86.8117 59.1371C86.0552 60.2133 85.4024 59.6062 85.4024 59.2412ZM87.9969 56.3223C86.8963 56.066 86.4293 56.5555 85.4823 56.7266C84.7743 56.8545 83.7808 56.6644 83.7808 58.1601C84.3436 58.1476 84.3546 57.9862 84.8618 57.9439L83.9546 59.5231C83.7166 59.8843 83.6982 59.8871 83.4262 60.1854C82.6983 60.9835 83.5228 61.6154 84.2478 60.898C84.5092 60.6392 84.7618 60.4804 84.8618 60.106H85.0781C85.2515 60.7552 86.3126 61.5114 86.4835 61.5114C87.4043 61.2654 87.4761 59.9175 87.7935 59.0378C88.3046 57.6205 88.9233 57.7059 87.9969 56.3223Z" fill="#322C2A"/>
<path fill-rule="evenodd" clip-rule="evenodd" d="M108.32 55.4577C108.106 55.4076 106.915 54.3882 106.915 55.782C106.915 56.7749 106.582 61.6196 107.78 61.6196C108.433 61.6196 108.212 60.0334 108.212 59.0251C108.212 57.9735 108.104 57.3577 108.104 56.3225C108.633 56.6765 108.36 56.863 109.185 56.863C109.261 56.5469 109.171 56.7073 109.402 56.5386C109.339 55.7823 108.969 55.143 108.969 54.2685C108.969 53.2714 110.473 52.8936 109.494 52.2297C108.199 51.3513 105.937 53.1358 107.555 53.1934C108.623 53.2313 108.559 53.1159 108.211 53.9443C107.993 54.4648 108.306 54.8106 108.32 55.4577Z" fill="#322C2A"/>
<path fill-rule="evenodd" clip-rule="evenodd" d="M43.0255 45.8362C43.3992 45.936 43.3581 45.8949 43.458 46.2686C44.6033 46.2686 46.8373 46.4558 47.421 46.0155C47.9918 45.5849 47.9983 45.3769 47.9983 44.7551C47.9983 44.4689 47.849 44.4784 47.7126 44.2842C47.387 43.8206 47.5033 43.7231 46.8942 43.3729C46.5485 43.1741 46.6052 43.3682 46.4848 42.9174C45.5848 42.9174 45.8192 42.8775 45.287 43.233C44.3363 43.8678 43.0255 44.1504 43.0255 45.8362Z" fill="#00459B"/>
<path fill-rule="evenodd" clip-rule="evenodd" d="M119.996 56.7549C119.996 57.8446 120.58 58.7044 121.638 57.8566C122.406 57.2411 123.412 55.5272 123.81 55.0554C124.089 54.7245 124.477 54.5178 124.628 54.136C124.989 53.2178 124.121 52.5028 123.347 52.3225L123.11 52.5176C122.897 52.7458 123.03 52.5776 122.898 52.8461C122.765 53.1154 122.731 53.1878 122.557 53.4784C122.222 54.038 120.973 55.9547 120.502 56.2877C119.961 56.67 119.996 56.2934 119.996 56.7549Z" fill="#322C2A"/>
<path fill-rule="evenodd" clip-rule="evenodd" d="M136.968 58.16C136.968 57.0567 137.789 56.6466 138.914 56.6466C138.868 57.1947 138.587 57.4123 138.223 57.6855C137.838 57.9748 137.6 58.16 136.968 58.16ZM136.536 56.3223C136.258 56.3223 135.967 56.1961 135.779 56.1061C135.273 56.8608 135.255 58.1374 136.066 58.6297C137.322 59.3921 136.387 59.5774 138.455 59.3227C140.367 59.0873 139.455 58.4436 139.455 58.052C139.455 56.9268 140.846 56.811 139.522 55.8215C138.338 54.9365 138.053 56.3223 136.536 56.3223Z" fill="#322C2A"/>
<path fill-rule="evenodd" clip-rule="evenodd" d="M126.158 11.7834C126.158 12.3295 125.842 11.6994 125.832 12.755C125.829 13.0519 125.876 13.0878 125.766 13.3376C125.534 13.8664 125.628 13.0744 125.511 13.8389C125.415 14.4611 125.625 14.4666 125.372 15.1053C125.158 15.6452 125.185 15.6156 125.185 16.3237C127.695 16.9085 127.312 15.5902 127.448 14.695C127.569 13.8906 127.72 14.563 127.78 13.7303C127.802 13.4293 127.734 13.4329 127.839 13.1406C128.052 12.5493 128.104 13.5882 128.104 11.4591C128.104 10.9515 127.44 11.1348 126.158 11.1348V11.7834Z" fill="#211511"/>
<path fill-rule="evenodd" clip-rule="evenodd" d="M87.997 56.3223C88.5197 56.4619 88.2363 56.6656 89.1751 56.5379C89.7632 56.4578 90.1393 56.4535 90.5915 56.2142C90.5915 55.0205 90.1336 55.7981 88.6785 54.5597C87.8468 53.8518 87.6691 53.7407 86.8335 52.8373C86.4108 52.3803 86.1968 51.8337 85.5106 51.6738C84.7985 52.4953 85.2853 52.5791 86.4839 54.2679L87.997 56.3223Z" fill="#322C2A"/>
<path fill-rule="evenodd" clip-rule="evenodd" d="M41.8201 16.2259C41.9003 16.8988 41.875 16.4276 42.0184 16.6818L42.2325 17.2321C42.3551 17.6331 42.4604 17.9876 42.5556 18.3777C43.0791 18.1479 42.7562 18.4023 43.0362 17.9538C43.5694 17.0997 44.4185 16.4253 45.1043 15.7L45.423 15.3699C45.6996 15.0448 45.62 14.9645 45.62 14.4858C45.4671 14.4242 45.2957 14.7168 45.2957 13.5364L44.8963 13.5674L44.8662 14.2008C44.0225 14.2239 43.9967 14.6191 43.5138 15.0815C43.1111 15.4671 42.7119 15.7868 42.3939 16.2222L41.8201 16.2259Z" fill="#7D8383"/>
<path fill-rule="evenodd" clip-rule="evenodd" d="M135.995 54.7007C135.495 54.7007 135.278 54.5238 134.806 54.4846C134.069 55.5854 134.368 55.7759 134.806 56.4304C135.302 56.1681 135.58 55.9014 136.118 55.6885C137.39 55.1846 137.395 54.6574 138.925 54.1714C140.164 53.7778 140.191 54.0798 140.428 53.5116L140.471 53.2409C140.304 52.2787 139.444 53.1087 139.16 53.2169C138.959 53.2937 138.706 53.369 138.45 53.4797C137.987 53.6799 136.305 54.7007 135.995 54.7007Z" fill="#322C2A"/>
<path fill-rule="evenodd" clip-rule="evenodd" d="M127.671 54.0521C126.927 54.8364 126.967 54.4451 126.374 55.5655C126.634 55.5439 127.611 54.9363 129.199 54.607C132.108 54.0034 125.787 50.3868 127.013 52.6487C127.312 53.1999 127.504 53.3327 127.671 54.0521Z" fill="#322C2A"/>
<path fill-rule="evenodd" clip-rule="evenodd" d="M83.0241 56.1061C83.0241 56.5104 83.1905 56.735 83.3484 56.9709C84.7033 56.8582 86.7052 52.4842 84.7865 53.4236C84.5039 53.5621 84.1621 53.9094 83.9787 54.1417C83.6937 54.5028 83.0241 55.5441 83.0241 56.1061Z" fill="#322C2A"/>
<path fill-rule="evenodd" clip-rule="evenodd" d="M37.8406 12.8845L38.8009 13.2539C40.0027 11.5042 39.6214 12.7432 40.4897 11.7331C41.817 10.1891 40.7969 10.9866 41.4344 10.4043C41.5827 10.2689 41.7692 10.1543 41.9444 10.0766V9.83749C41.8352 9.81208 41.4475 9.72576 41.3498 9.6775C41.3281 9.66678 41.3036 9.64839 41.2826 9.63665C40.8027 9.36915 41.496 9.46976 40.8334 9.40503C40.5605 9.80123 40.0483 10.38 39.7162 10.7466C38.717 11.8495 38.8103 11.5395 38.8019 12.2083C38.326 12.219 38.4065 12.1504 38.1133 12.3827C37.8762 12.5705 37.8493 12.707 37.8406 12.8845Z" fill="#949595"/>
<path fill-rule="evenodd" clip-rule="evenodd" d="M36.6326 12.432L36.9124 12.5977C37.3183 12.8749 37.0261 12.8798 37.8406 12.8845C37.8493 12.707 37.8762 12.5705 38.1133 12.3827C38.4065 12.1504 38.326 12.219 38.8019 12.2083C38.8103 11.5395 38.717 11.8495 39.7162 10.7466C40.0483 10.38 40.5605 9.80123 40.8334 9.40503H39.458C39.2591 10.1501 36.8702 11.7204 36.6326 12.432Z" fill="#7D8383"/>
<path fill-rule="evenodd" clip-rule="evenodd" d="M126.482 9.72943L126.59 10.9185C127.034 10.9185 128.182 11.0859 128.377 10.76C128.408 10.7081 128.608 9.68143 128.32 9.08081H126.914C126.749 9.70135 126.482 9.20657 126.482 9.72943Z" fill="#211511"/>
<path fill-rule="evenodd" clip-rule="evenodd" d="M99.4561 59.9979L99.2452 59.8735L99.4561 59.9979Z" fill="#322C2A"/>
</svg>
